PathFileType	4	(X/Y/Z)	/Users/itak/Documents/Research/Walk-IL/dataset/trc/00155_00007.trc
DataRate	CameraRate	NumFrames	NumMarkers	Units	OrigDataRate	OrigDataStartFrame	OrigNumFrames
100.000000	100.000000	4	53	mm	100.000000	282	565
Frame#	Time	RPSI			LPSI			L3			STRN			T10			C7			CLAV			RBAK			LBAK			LSHO			LUPA			LAEL			LAOL			LWTS			LWPS			LFRA			LIFD			LHPS			LHTS			RSHO			RUPA			RAEL			RAOL			RWTS			RWPS			RFRA			RIFD			RHTS			RHPS			RBHD			LFHD			RFHD			LBHD			LHIP			RHIP			RASI			LASI			LKNE			LTHI			LANK			LTIP			LTOE			LMT1			LMT5			LHEE			RKNE			RTHI			RANK			RTIP			RTOE			RMT1			RMT5			RHEE			
		X1	Y1	Z1	X2	Y2	Z2	X3	Y3	Z3	X4	Y4	Z4	X5	Y5	Z5	X6	Y6	Z6	X7	Y7	Z7	X8	Y8	Z8	X9	Y9	Z9	X10	Y10	Z10	X11	Y11	Z11	X12	Y12	Z12	X13	Y13	Z13	X14	Y14	Z14	X15	Y15	Z15	X16	Y16	Z16	X17	Y17	Z17	X18	Y18	Z18	X19	Y19	Z19	X20	Y20	Z20	X21	Y21	Z21	X22	Y22	Z22	X23	Y23	Z23	X24	Y24	Z24	X25	Y25	Z25	X26	Y26	Z26	X27	Y27	Z27	X28	Y28	Z28	X29	Y29	Z29	X30	Y30	Z30	X31	Y31	Z31	X32	Y32	Z32	X33	Y33	Z33	X34	Y34	Z34	X35	Y35	Z35	X36	Y36	Z36	X37	Y37	Z37	X38	Y38	Z38	X39	Y39	Z39	X40	Y40	Z40	X41	Y41	Z41	X42	Y42	Z42	X43	Y43	Z43	X44	Y44	Z44	X45	Y45	Z45	X46	Y46	Z46	X47	Y47	Z47	X48	Y48	Z48	X49	Y49	Z49	X50	Y50	Z50	X51	Y51	Z51	X52	Y52	Z52	X53	Y53	Z53	

283	2.82	-433.3711853027344	1098.923217773438	-491.89990234375	-356.8679809570312	1109.584228515625	-603.1453247070312	-401.0145874023438	1139.200927734375	-550.788818359375	-224.1119689941406	1334.724975585938	-420.2557678222656	-430.3756713867188	1290.306396484375	-555.9027099609375	-394.5213623046875	1582.474243164062	-545.6963500976562	-249.0920715332031	1470.371826171875	-442.3362731933594	-488.53076171875	1398.704345703125	-503.2842102050781	-345.2861633300781	1562.469970703125	-634.6773071289062	-237.7430114746094	1545.22314453125	-647.6290283203125	-224.6194000244141	1415.711181640625	-723.4063110351562	-215.965576171875	1198.932373046875	-751.2681884765625	-302.4268493652344	1189.752563476562	-729.8328857421875	-169.0868072509766	929.0857543945312	-697.9043579101562	-234.4442138671875	915.2257690429688	-758.0596923828125	-209.4701538085938	1082.166870117188	-759.4142456054688	-190.7818756103516	732.6231079101562	-693.7976684570312	-217.0496673583984	836.8616333007812	-754.2205810546875	-162.1838531494141	839.1707763671875	-710.5658569335938	-444.8446044921875	1562.599609375	-362.6901245117188	-492.704345703125	1488.391357421875	-317.2486267089844	-495.5953063964844	1191.987182617188	-295.9665222167969	-452.6128540039062	1190.268920898438	-382.5400085449219	-342.153076171875	966.3991088867188	-226.4464569091797	-419.5494384765625	941.7595825195312	-232.9282073974609	-476.2571105957031	1121.260986328125	-266.8058471679688	-292.2076110839844	776.5180053710938	-213.802490234375	-308.7308349609375	863.292724609375	-200.5595855712891	-378.9487915039062	846.9931640625	-205.6697082519531	-393.8653259277344	1755.980712890625	-459.0203552246094	-182.7099456787109	1808.723876953125	-443.4762573242188	-268.2723999023438	1806.721435546875	-345.8431701660156	-311.8523254394531	1762.861450195312	-565.2510986328125	-212.0769500732422	1030.41064453125	-639.805419921875	-399.1827697753906	993.2930908203125	-326.1109008789062	-305.2265319824219	1068.834106445312	-316.9043884277344	-157.4103698730469	1088.647216796875	-537.815185546875	-70.12339782714844	556.203125	-524.55029296875	-110.9677429199219	688.6393432617188	-586.009765625	-37.01916885375977	32.20515441894531	-571.15625	-58.91184234619141	298.2616577148438	-595.5139770507812	56.15500259399414	47.30802917480469	-358.3514709472656	-17.42329978942871	45.30547332763672	-398.3539733886719	58.49598693847656	36.07926177978516	-489.30908203125	-129.3001708984375	32.95730590820312	-586.9141845703125	-392.4978332519531	499.8194274902344	-409.692138671875	-376.395751953125	776.9733276367188	-345.1536560058594	-695.2837524414062	88.42348480224609	-556.6090087890625	-471.0305786132812	383.2535400390625	-434.8162536621094	-470.9458618164062	35.33911514282227	-584.70068359375	-527.3594970703125	41.15900421142578	-629.2677001953125	-575.0747680664062	40.54095458984375	-519.9476318359375	-736.5169677734375	123.4324417114258	-610.43408203125	
284	2.83	-423.8384094238281	1100.261474609375	-490.4303588867188	-346.3570251464844	1111.472290039062	-600.726806640625	-390.8969421386719	1140.86962890625	-548.9241943359375	-215.3607330322266	1336.428588867188	-416.4760437011719	-420.1678466796875	1291.949584960938	-554.2017822265625	-384.6168823242188	1584.078247070312	-543.6075439453125	-240.2309875488281	1472.08544921875	-438.7405700683594	-478.8917846679688	1400.224975585938	-502.1203918457031	-334.5480041503906	1564.194946289062	-632.0421752929688	-226.7820739746094	1547.205810546875	-643.9114990234375	-212.9024963378906	1417.80859375	-719.761962890625	-204.7449951171875	1200.9736328125	-747.5910034179688	-291.473388671875	1192.099487304688	-726.9002075195312	-159.6972961425781	930.6697387695312	-694.3906860351562	-224.5646209716797	917.3392333984375	-755.2099609375	-198.7389221191406	1084.197387695312	-755.9026489257812	-182.9040985107422	734.244140625	-690.8970947265625	-207.7569885253906	838.8523559570312	-751.4005126953125	-153.3158874511719	840.6795043945312	-707.1864013671875	-436.8660583496094	1564.236572265625	-361.2334594726562	-485.3405456542969	1490.142822265625	-316.3505859375	-490.1796569824219	1193.854370117188	-296.8862915039062	-445.258056640625	1192.315063476562	-382.5382080078125	-340.8666381835938	965.830322265625	-225.8744506835938	-418.4003601074219	942.3307495117188	-234.3017272949219	-472.1534729003906	1122.835083007812	-267.8544006347656	-294.0056457519531	774.9649047851562	-214.0800323486328	-309.44970703125	861.95849609375	-200.3160095214844	-379.7772521972656	846.7855224609375	-207.0115509033203	-385.1806640625	1757.672119140625	-456.953125	-174.1614685058594	1810.28564453125	-438.8121643066406	-260.9901123046875	1808.302368164062	-342.2599792480469	-301.8721313476562	1764.526977539062	-562.16943359375	-201.0263824462891	1032.390747070312	-636.0406494140625	-391.084716796875	994.3759155273438	-324.678955078125	-297.4779663085938	1070.18408203125	-314.4536743164062	-147.2610931396484	1090.478271484375	-533.5469360351562	-63.75640487670898	556.223876953125	-520.9456176757812	-102.4898452758789	689.6158447265625	-582.0877075195312	-36.53916549682617	32.14914703369141	-571.1400146484375	-54.11594772338867	298.4797668457031	-593.799072265625	56.18876266479492	45.45548248291016	-357.8280334472656	-17.27900123596191	44.51543426513672	-398.3063659667969	59.10669326782227	35.66776657104492	-489.2728271484375	-128.7528991699219	33.24235153198242	-587.3341674804688	-379.5132141113281	500.0275573730469	-403.3476257324219	-366.5448608398438	778.0216674804688	-341.9327087402344	-690.7704467773438	96.03254699707031	-555.7463989257812	-460.5158081054688	385.2416687011719	-429.7064819335938	-470.7409057617188	35.31229782104492	-583.7841186523438	-525.490478515625	42.76186370849609	-629.0155639648438	-574.0848388671875	40.7223014831543	-519.9096069335938	-729.219482421875	134.0131683349609	-609.2885131835938	
285	2.84	-414.43603515625	1101.608276367188	-489.0684509277344	-335.8484191894531	1113.340942382812	-598.3099365234375	-380.7876281738281	1142.537353515625	-547.1031494140625	-206.7118835449219	1338.08544921875	-412.5835266113281	-409.9127197265625	1293.5693359375	-552.4190063476562	-374.7316589355469	1585.658325195312	-541.4496459960938	-231.4385833740234	1473.75732421875	-435.0468139648438	-469.2898254394531	1401.760375976562	-500.9615173339844	-323.815673828125	1565.89697265625	-629.3147583007812	-215.8257293701172	1549.171875	-640.0634765625	-201.2154083251953	1419.906860351562	-716.0336303710938	-193.5615081787109	1203.026977539062	-743.9220581054688	-280.5357360839844	1194.431396484375	-723.9498901367188	-150.0555114746094	932.3772583007812	-690.6969604492188	-214.4222412109375	919.435546875	-752.1611938476562	-187.9562530517578	1086.231323242188	-752.3380126953125	-174.513916015625	735.975830078125	-687.6154174804688	-198.1161956787109	840.8472900390625	-748.3037719726562	-144.0969085693359	842.3119506835938	-703.5391845703125	-428.9609069824219	1565.836059570312	-359.7494812011719	-478.0538024902344	1491.86865234375	-315.4795837402344	-484.8977966308594	1195.708740234375	-297.7515258789062	-438.1028442382812	1194.325439453125	-382.4793701171875	-339.6632385253906	965.356689453125	-225.3218688964844	-417.2897033691406	942.9585571289062	-235.7201385498047	-468.1661682128906	1124.410766601562	-268.901611328125	-295.6793823242188	773.632568359375	-214.5193328857422	-310.1768188476562	860.7981567382812	-200.1827850341797	-380.57080078125	846.6813354492188	-208.4917907714844	-376.5695495605469	1759.347412109375	-454.8130187988281	-165.7135467529297	1811.84814453125	-434.1031188964844	-253.7871398925781	1809.868774414062	-338.6533813476562	-291.9761657714844	1766.198974609375	-559.0198364257812	-190.0383911132812	1034.31640625	-632.1893920898438	-383.2647705078125	995.458251953125	-323.3255004882812	-290.0109558105469	1071.540649414062	-312.0070190429688	-137.2292633056641	1092.194580078125	-529.103271484375	-57.83501052856445	556.0590209960938	-518.0411987304688	-94.48310852050781	690.3749389648438	-578.776123046875	-36.13019561767578	32.10160446166992	-571.1338500976562	-49.87199020385742	298.5566711425781	-592.4395141601562	56.22338104248047	44.07398223876953	-357.3556518554688	-17.17847061157227	44.03520202636719	-398.2940979003906	59.6537971496582	35.4127197265625	-489.3072509765625	-128.2979278564453	33.4352912902832	-587.7217407226562	-366.1672058105469	500.3180541992188	-396.4184875488281	-356.7674865722656	779.1256713867188	-338.5226135253906	-685.4547729492188	104.094841003418	-554.775146484375	-449.3054809570312	387.3236389160156	-424.1046447753906	-470.419677734375	35.24272155761719	-582.6178588867188	-523.169189453125	44.50337219238281	-628.73388671875	-572.9688720703125	41.02511596679688	-519.977294921875	-720.73388671875	145.0367431640625	-607.929443359375	
286	2.85	-405.2147216796875	1102.898315429688	-487.7845153808594	-325.3929443359375	1115.162475585938	-595.8643798828125	-370.7143859863281	1144.169189453125	-545.2847900390625	-198.2031707763672	1339.645385742188	-408.5683288574219	-399.6574096679688	1295.137817382812	-550.6093139648438	-364.8580322265625	1587.183715820312	-539.2265625	-222.7383575439453	1475.337158203125	-431.24267578125	-459.7463989257812	1403.278930664062	-499.8529663085938	-313.0673217773438	1567.544677734375	-626.4924926757812	-204.8542022705078	1551.062744140625	-636.0640869140625	-189.5433807373047	1421.945068359375	-712.199951171875	-182.4091644287109	1205.035522460938	-740.2555541992188	-269.6051940917969	1196.690307617188	-720.9866333007812	-140.1756439208984	934.1417846679688	-686.8242797851562	-204.0235443115234	921.4541015625	-748.9127197265625	-177.1122741699219	1088.210327148438	-748.7186889648438	-165.5739440917969	737.7584838867188	-683.9691162109375	-188.1214752197266	842.7866821289062	-744.9332275390625	-134.5215911865234	844.0097045898438	-699.6328735351562	-421.1553955078125	1567.346557617188	-358.2493286132812	-470.884521484375	1493.509033203125	-314.6674499511719	-479.748779296875	1197.492919921875	-298.5411376953125	-431.1747436523438	1196.22900390625	-382.3594055175781	-338.5075073242188	964.9387817382812	-224.7841339111328	-416.1854553222656	943.5928344726562	-237.1338348388672	-464.2771606445312	1125.932861328125	-269.9195861816406	-297.154052734375	772.4949340820312	-215.0721893310547	-310.833251953125	859.8045043945312	-200.1387176513672	-381.2699584960938	846.6409301757812	-210.0659484863281	-368.0302429199219	1760.947387695312	-452.6044311523438	-157.3832092285156	1813.395141601562	-429.34814453125	-246.6768493652344	1811.391235351562	-335.0202941894531	-282.1615600585938	1767.835693359375	-555.8067016601562	-179.1839447021484	1036.176879882812	-628.2539672851562	-375.7336120605469	996.4691162109375	-322.0237426757812	-282.8555297851562	1072.846801757812	-309.5585021972656	-127.3625106811523	1093.764282226562	-524.48828125	-52.31704330444336	555.7432861328125	-515.8565673828125	-86.96753692626953	690.9401245117188	-576.0713500976562	-35.79592895507812	32.0479736328125	-571.1340942382812	-46.20421981811523	298.4968872070312	-591.463623046875	56.2691764831543	43.05773544311523	-356.9142761230469	-17.10898590087891	43.77155303955078	-398.2933044433594	60.14490509033203	35.23306274414062	-489.39111328125	-127.9367065429688	33.56284713745117	-588.0597534179688	-352.5515441894531	500.6873779296875	-388.9780578613281	-347.1151733398438	780.2338256835938	-334.9332275390625	-679.29296875	112.5190887451172	-553.6840209960938	-437.4201049804688	389.4352416992188	-418.0356750488281	-469.843505859375	35.12116241455078	-581.0921630859375	-520.2156982421875	46.44780349731445	-628.2868041992188	-571.6441040039062	41.53913116455078	-520.1300048828125	-711.0709228515625	156.3550262451172	-606.332763671875	
